<?xml version="1.0" encoding="utf-8"?>
<!-- Generator: Adobe Illustrator 19.2.1, SVG Export Plug-In . SVG Version: 6.00 Build 0)  -->
<svg version="1.1" id="Layer_2" xmlns="http://www.w3.org/2000/svg" xmlns:xlink="http://www.w3.org/1999/xlink" x="0px" y="0px"
	 viewBox="0 0 80.3 80.3" style="enable-background:new 0 0 80.3 80.3;" xml:space="preserve">
<style type="text/css">
	.st0{fill:#EB6A5C;}
	.st1{fill:#552F2F;}
	.st2{fill:#55AB99;}
	.st3{fill:#2F4555;}
	.st4{fill:#FFFFFF;}
	.st5{fill:#ED6B5A;}
	.st6{fill:#0C2C48;}
	.st7{fill:#F1CC4B;}
	.st8{clip-path:url(#SVGID_2_);}
	.st9{clip-path:url(#SVGID_2_);fill:#F6A09C;}
	.st10{fill:#50646F;}
	.st11{fill:#FCA886;}
	.st12{fill:#EDAB7E;}
	.st13{fill:#332319;}
	.st14{fill:#E07E45;}
	.st15{fill:#FF8F8F;}
	.st16{fill:#A6D1D9;}
	.st17{fill:#628185;}
	.st18{fill:#BABABA;}
	.st19{fill:#698391;}
	.st20{opacity:0.41;fill:#FFFFFF;}
	.st21{fill:#F6A09C;}
	.st22{fill:#FFF3C9;}
	.st23{fill:#2384AB;}
	.st24{fill:#BABFC5;}
	.st25{clip-path:url(#SVGID_4_);}
	.st26{fill:#6EB9E0;}
	.st27{fill:#F8A06D;}
	.st28{fill:#A3B9C4;}
	.st29{fill:#3B4A52;}
	.st30{clip-path:url(#SVGID_6_);}
	.st31{clip-path:url(#SVGID_8_);fill:#F6A09C;}
	.st32{opacity:0.21;fill:#FFFFFF;}
	.st33{clip-path:url(#SVGID_10_);fill:#F6A09C;}
	.st34{clip-path:url(#SVGID_12_);}
	.st35{fill:#FFD3B5;}
	.st36{fill:#BFD9E6;}
	.st37{fill:#798287;}
	.st38{fill:#A4A8AD;}
	.st39{fill:#FFD6BA;}
	.st40{fill:none;stroke:#0C2C48;stroke-width:1.4;stroke-miterlimit:10;}
</style>
<g>
	<g>
		<circle class="st27" cx="40.2" cy="40.2" r="40.2"/>
	</g>
	<g>
		<g>
			<rect x="38.6" y="34.2" class="st6" width="1.3" height="25.8"/>
		</g>
	</g>
	<g>
		<ellipse class="st4" cx="23.1" cy="18" rx="10.3" ry="4.8"/>
	</g>
	<g>
		<g>
			<g>
				<g>
					<path class="st2" d="M46,51.5c0,0.4-0.4,0.8-0.8,0.8H33.4c-0.4,0-0.8-0.4-0.8-0.8v-9.9c0-0.4,0.4-0.8,0.8-0.8h11.9
						c0.4,0,0.8,0.4,0.8,0.8V51.5z"/>
				</g>
			</g>
			<g>
				<g>
					<path class="st6" d="M34.8,46.6c0-0.6,0.4-1.1,1-1.1s1,0.4,1,1.1c0,0.6-0.4,1.1-1,1.1C35.2,47.6,34.8,47.2,34.8,46.6z"/>
				</g>
				<g>
					<path class="st6" d="M38.3,46.6c0-0.6,0.4-1.1,1-1.1c0.6,0,1,0.4,1,1.1c0,0.6-0.4,1.1-1,1.1C38.7,47.6,38.3,47.2,38.3,46.6z"/>
				</g>
				<g>
					<path class="st6" d="M41.8,46.6c0-0.6,0.4-1.1,1-1.1s1,0.4,1,1.1c0,0.6-0.4,1.1-1,1.1C42.2,47.6,41.8,47.2,41.8,46.6z"/>
				</g>
			</g>
		</g>
		<g>
			<g>
				<g>
					<path class="st5" d="M46,35.5c0,0.4-0.4,0.8-0.8,0.8H33.4c-0.4,0-0.8-0.4-0.8-0.8v-9.9c0-0.4,0.4-0.8,0.8-0.8h11.9
						c0.4,0,0.8,0.4,0.8,0.8V35.5z"/>
				</g>
			</g>
			<g>
				<g>
					<path class="st6" d="M34.8,30.5c0-0.6,0.4-1.1,1-1.1s1,0.4,1,1.1c0,0.6-0.4,1.1-1,1.1C35.2,31.6,34.8,31.1,34.8,30.5z"/>
				</g>
				<g>
					<path class="st6" d="M38.3,30.5c0-0.6,0.4-1.1,1-1.1c0.6,0,1,0.4,1,1.1c0,0.6-0.4,1.1-1,1.1C38.7,31.6,38.3,31.1,38.3,30.5z"/>
				</g>
				<g>
					<path class="st6" d="M41.8,30.5c0-0.6,0.4-1.1,1-1.1s1,0.4,1,1.1c0,0.6-0.4,1.1-1,1.1C42.2,31.6,41.8,31.1,41.8,30.5z"/>
				</g>
			</g>
		</g>
		<g>
			<g>
				<g>
					<path class="st19" d="M46,67.6c0,0.4-0.4,0.8-0.8,0.8H33.4c-0.4,0-0.8-0.4-0.8-0.8v-9.9c0-0.4,0.4-0.8,0.8-0.8h11.9
						c0.4,0,0.8,0.4,0.8,0.8V67.6z"/>
				</g>
			</g>
			<g>
				<g>
					<path class="st6" d="M34.8,62.6c0-0.6,0.4-1.1,1-1.1s1,0.4,1,1.1c0,0.6-0.4,1.1-1,1.1C35.2,63.7,34.8,63.2,34.8,62.6z"/>
				</g>
				<g>
					<path class="st6" d="M38.3,62.6c0-0.6,0.4-1.1,1-1.1c0.6,0,1,0.4,1,1.1c0,0.6-0.4,1.1-1,1.1C38.7,63.7,38.3,63.2,38.3,62.6z"/>
				</g>
				<g>
					<path class="st6" d="M41.8,62.6c0-0.6,0.4-1.1,1-1.1s1,0.4,1,1.1c0,0.6-0.4,1.1-1,1.1C42.2,63.7,41.8,63.2,41.8,62.6z"/>
				</g>
			</g>
		</g>
	</g>
	<g>
		<path class="st6" d="M30.8,31.1h-5c-2,0-3.7-1.8-3.7-4v-2.7h1.4v2.7c0,1.4,1,2.6,2.3,2.6h5V31.1z"/>
	</g>
	<g>
		<path class="st6" d="M61.3,53.2h-1.4v-3c0-1.3-1-2.3-2.3-2.3H48v-1.4h9.7c2,0,3.7,1.7,3.7,3.7V53.2z"/>
	</g>
	<g>
		<rect x="53.4" y="55" class="st6" width="16.3" height="10"/>
	</g>
	<g>
		<path class="st6" d="M57.6,45.4H48V44h9.7c1.3,0,2.3-1,2.3-2.3v-3h1.4v3C61.3,43.7,59.7,45.4,57.6,45.4z"/>
	</g>
	<g>
		<path class="st6" d="M31.4,63.1H18.8c-2,0-3.7-1.8-3.7-4v-2.7h1.4v2.7c0,1.4,1,2.6,2.3,2.6h12.6V63.1z"/>
	</g>
	<g>
		<polygon class="st36" points="68.5,37.6 53.7,37.6 53.7,22.8 63.7,22.8 68.5,27.3 		"/>
		<polygon class="st4" points="68.5,27.3 63.7,27.3 63.7,22.8 		"/>
		<g>
			<rect x="55.9" y="26.2" class="st37" width="7.1" height="1.2"/>
			<rect x="55.9" y="29.6" class="st37" width="10.4" height="1.2"/>
			<rect x="55.9" y="33" class="st37" width="10.4" height="1.2"/>
		</g>
	</g>
	<g>
		<rect x="17.1" y="15.9" class="st37" width="12.5" height="1.3"/>
		<rect x="17.1" y="18.4" class="st37" width="12.5" height="1.3"/>
	</g>
	<g>
		<polygon class="st28" points="23.8,55.1 9,55.1 9,40.3 18.9,40.3 23.8,44.9 		"/>
		<polygon class="st4" points="23.8,44.9 19,44.9 19,40.3 		"/>
		<g>
			<rect x="11.2" y="43.7" class="st4" width="7.1" height="1.2"/>
			<rect x="11.2" y="47.2" class="st4" width="10.4" height="1.2"/>
			<rect x="11.2" y="50.6" class="st4" width="10.4" height="1.2"/>
		</g>
	</g>
	<g>
		<rect x="55.8" y="57.7" class="st37" width="11.5" height="1.2"/>
		<rect x="55.8" y="60.4" class="st37" width="11.5" height="1.2"/>
	</g>
</g>
</svg>
